<svg version="1.1" xmlns="http://www.w3.org/2000/svg" style="display: block;" viewBox="0 0 2048 2048" width="1024" height="1024" preserveAspectRatio="none">
<path transform="translate(0,0)" fill="rgb(130,207,131)" d="M 986.087 411.83 C 1156.98 398.624 1331.1 518.101 1350.5 694.875 C 1359.54 777.19 1273.2 817.9 1211.3 768.814 C 1183.22 746.548 1191.24 708.347 1179.29 678.576 C 1117.23 508.663 852.063 523.094 818.351 704.716 C 811.379 742.273 820.66 783.758 840.628 815.893 C 849.415 830.034 859.605 841.622 870.795 853.826 C 937.402 914.557 1011.06 937.404 1090.13 977.8 C 1124.78 994.876 1156.39 1017.21 1187.9 1038.95 C 1286.13 1106.72 1342.55 1185.99 1347.29 1307.78 C 1353.27 1461.67 1253.4 1576.46 1110.73 1619.53 C 1094.47 1624.43 1074.8 1631.47 1057.9 1632.29 C 1062.49 1628.88 1080.97 1623.41 1087.49 1620.99 C 1095.13 1618.08 1102.62 1614.77 1109.93 1611.08 C 1168.5 1581.83 1214.3 1532.14 1234.85 1469.56 C 1253.65 1413.03 1248.95 1351.32 1221.82 1298.29 C 1204.41 1264.4 1175.05 1231.94 1144.92 1209.21 C 1138.11 1204.07 1128.08 1196.03 1119.98 1193.4 C 1109.72 1186.25 1099.79 1176.56 1089.41 1168.9 C 976.527 1085.56 836.661 1057.46 737.244 953.812 C 665.069 878.562 636.917 790.783 650.722 687.567 C 672.091 527.795 828.313 410.31 986.087 411.83 z"/>
<path transform="translate(0,0)" fill="rgb(48,157,154)" d="M 986.087 411.83 C 1156.98 398.624 1331.1 518.101 1350.5 694.875 C 1359.54 777.19 1273.2 817.9 1211.3 768.814 C 1183.22 746.548 1191.24 708.347 1179.29 678.576 C 1117.23 508.663 852.063 523.094 818.351 704.716 C 811.379 742.273 820.66 783.758 840.628 815.893 C 849.415 830.034 859.605 841.622 870.795 853.826 C 848.831 845.928 808.464 799.104 797.265 779.888 C 721.547 649.952 795.13 492.722 924.573 434.536 C 935.031 429.907 945.689 425.745 956.516 422.061 C 963.816 419.624 980.6 415.67 986.087 411.83 z"/>
<path transform="translate(0,0)" fill="rgb(130,207,131)" d="M 647.229 1486.57 C 639.115 1488.73 626.316 1488.38 617.602 1488.39 C 570.674 1488.28 523.918 1482.7 478.283 1471.76 C 270.136 1422.76 175.753 1225.29 163.911 1028.49 C 158.62 940.561 165.309 858.153 185.597 772.808 C 241.637 865.978 395.196 876.909 488.342 913.155 C 556.748 939.415 624.007 985.778 668.386 1044.33 C 726.968 1121.61 752.5 1224.23 751.118 1320.17 C 750.79 1342.96 751.163 1365.34 747.979 1388.1 C 725.684 1379.46 700.475 1366.07 679.464 1354.59 C 571.026 1295.34 469.678 1205 392.082 1108.9 C 377.249 1090.45 363.184 1071.39 349.92 1051.78 C 343.083 1041.71 330.622 1021.58 323.294 1013.19 L 322.362 1012.14 C 325.057 1020.52 328.833 1028.38 331.576 1037.01 C 331.204 1045.85 343.029 1081.74 346.335 1091.44 C 383.138 1199.41 436.176 1283.56 512.829 1367.09 C 540.249 1396.43 569.665 1423.85 600.867 1449.13 C 612.249 1458.49 638.709 1478.31 647.229 1486.57 z"/>
<path transform="translate(0,0)" fill="rgb(48,157,154)" d="M 331.576 1037.01 C 338.377 1051.08 344.282 1065.19 351.314 1079.27 C 363.874 1103.8 377.586 1127.73 392.404 1150.97 C 480.459 1289.06 624.335 1412.74 780.925 1464 C 875.064 1494.82 987.484 1515.02 1080.41 1469.96 C 1123.93 1448.95 1160.35 1412.34 1176.52 1366.37 C 1201.05 1296.6 1168.75 1241.4 1119.98 1193.4 C 1128.08 1196.03 1138.11 1204.07 1144.92 1209.21 C 1175.05 1231.94 1204.41 1264.4 1221.82 1298.29 C 1248.95 1351.32 1253.65 1413.03 1234.85 1469.56 C 1214.3 1532.14 1168.5 1581.83 1109.93 1611.08 C 1102.62 1614.77 1095.13 1618.08 1087.49 1620.99 C 1080.97 1623.41 1062.49 1628.88 1057.9 1632.29 C 1055.21 1633.35 1046.41 1634.3 1043.24 1634.66 C 889.501 1652.11 763.149 1577.36 647.229 1486.57 C 638.709 1478.31 612.249 1458.49 600.867 1449.13 C 569.665 1423.85 540.249 1396.43 512.829 1367.09 C 436.176 1283.56 383.138 1199.41 346.335 1091.44 C 343.029 1081.74 331.204 1045.85 331.576 1037.01 z"/>
<path transform="translate(0,0)" fill="rgb(48,157,154)" d="M 1404.1 945.828 C 1410.75 926.488 1415.49 906.763 1421.11 887.121 C 1431.92 849.934 1442.44 812.66 1452.66 775.303 C 1458.53 754.062 1464.75 729.154 1472.36 708.644 C 1477.82 693.923 1501.29 687.533 1514.46 694.189 C 1530.1 700.815 1531.43 717.65 1534.13 732.149 C 1537.97 751.858 1540.23 771.792 1543.88 791.446 L 1586.58 1031.6 C 1589.64 1050.36 1592.95 1069.08 1596.49 1087.76 C 1598.21 1097.13 1599.27 1108.73 1602.85 1117.23 C 1613.48 1088 1620.98 1057.09 1630.45 1027.49 C 1638.89 1003.51 1641.44 962.222 1675.17 962.174 C 1735.27 962.086 1794.97 961.986 1855.01 962.114 C 1903.09 962.216 1897.05 1029.17 1857.62 1028.95 C 1804.65 1028.66 1751.37 1028.05 1698.34 1029.13 C 1676.2 1089.6 1662.51 1154.76 1641.69 1215.79 C 1633.88 1238.68 1628.64 1283.55 1607.56 1295.35 C 1592.21 1303.94 1568.9 1295.68 1563.62 1277.28 C 1555.37 1248.58 1552.98 1218.48 1547.29 1189.16 C 1532.29 1098.17 1516.25 1007.41 1500.91 916.476 C 1499.91 910.584 1495.5 882.511 1492.84 879.449 C 1487.03 885.125 1459.71 992.058 1453.2 1008.43 C 1444.75 1029.71 1446.64 1071.65 1410.63 1071.11 C 1378.55 1070.64 1369.81 1020.78 1355.7 997.444 C 1345.62 1019.8 1334.67 1061.11 1301.63 1044.54 C 1293.38 1040.4 1280.77 1029.08 1274.51 1021.87 C 1277.36 1016.92 1284.18 1014.95 1288.69 1006.97 C 1294.17 997.291 1297.73 981.382 1302.85 972.702 C 1311.62 952.639 1318.02 931.786 1327.43 911.98 C 1335.95 894.036 1355.97 886.898 1373.72 895.962 C 1389.92 904.287 1395.11 930.974 1404.1 945.828 z"/>
<path transform="translate(0,0)" fill="rgb(130,207,131)" d="M 1274.51 1021.87 C 1265.9 1015.63 1250.27 1001.42 1241.21 994.015 C 1218.84 975.658 1195.71 958.249 1171.89 941.832 C 1111.43 900.679 1047.98 862.918 985.757 824.551 C 962.773 810.511 940.058 797.394 917.853 782.074 C 895.946 766.958 888.818 743.606 896.957 718.507 C 905.724 691.47 939.471 676.037 965.693 686.889 C 977.865 691.927 988.851 699.534 1000.12 706.497 C 1016.57 716.467 1032.9 726.656 1049.08 737.061 C 1130.82 788.961 1221.84 846.064 1278.77 926.948 C 1286.73 938.25 1297.24 960.087 1302.85 972.702 C 1297.73 981.382 1294.17 997.291 1288.69 1006.97 C 1284.18 1014.95 1277.36 1016.92 1274.51 1021.87 z"/>
<path transform="translate(0,0)" fill="rgb(48,157,154)" d="M 698.43 1010.8 C 700.314 1011.99 699.662 1011.44 700.866 1012.56 C 733.352 1042.71 771.888 1071.71 808.061 1097.23 C 858.299 1133.03 909.981 1166.77 962.978 1198.35 L 1028.02 1237.42 C 1046.41 1248.46 1071.11 1261.68 1086.29 1276.44 C 1107.8 1297.35 1108.07 1335.39 1086.65 1356.99 C 1077.6 1366.69 1059.94 1372.81 1046.98 1372.14 C 1025.45 1371.02 1005.04 1355.44 987.028 1344.17 C 963.032 1329.14 939.263 1313.75 915.726 1298.01 L 856.318 1258.93 C 837.171 1246.38 800.866 1222.46 785.561 1205.95 C 767.221 1131.46 747.302 1072.3 698.43 1010.8 z"/>
</svg>